<?xml version="1.0" encoding="utf-8"?>
<!-- Generator: Adobe Illustrator 23.0.1, SVG Export Plug-In . SVG Version: 6.00 Build 0)  -->
<svg version="1.1" id="Слой_1" xmlns="http://www.w3.org/2000/svg" xmlns:xlink="http://www.w3.org/1999/xlink" x="0px" y="0px"
	 viewBox="0 0 50 50" style="enable-background:new 0 0 50 50;" xml:space="preserve">
<style type="text/css">
	.st0{fill:none;}
	.st1{fill:#BCB7B6;}
</style>
<rect class="st0" width="50" height="50"/>
<path class="st1" d="M32.993,28.131c0.61-0.61,1.571-0.61,2.181,0c0.59,0.61,0.59,1.571,0,2.181l-9.141,9.142
	c-0.283,0.283-0.676,0.458-1.112,0.458s-0.829-0.175-1.113-0.458l-9.141-9.142c-0.61-0.61-0.61-1.571,0-2.181
	c0.61-0.61,1.571-0.61,2.181,0l6.524,6.546V11.44c-0.001-0.851,0.697-1.527,1.548-1.527c0.851,0,1.527,0.676,1.527,1.527v23.236
	L32.993,28.131z"/>
</svg>
