<?xml version="1.0" encoding="utf-8"?>
<!-- Generator: Adobe Illustrator 18.1.1, SVG Export Plug-In . SVG Version: 6.00 Build 0)  -->
<!DOCTYPE svg PUBLIC "-//W3C//DTD SVG 1.1//EN" "http://www.w3.org/Graphics/SVG/1.1/DTD/svg11.dtd">
<svg xmlns="http://www.w3.org/2000/svg" xmlns:xlink="http://www.w3.org/1999/xlink" version="1.1" id="Layer_1" x="0px" y="0px" width="98px" height="146px" viewBox="0 0 98 146" xml:space="preserve">
<g>
	<g>
		<path fill="#B7A18C" d="M96.3,68.5c-1.9-1.6-4.9-1.3-6.5,0.6c-1.8,2.2-4.3,3.6-7.1,4L81,56.3c8.2-0.4,14.7-7.1,14.7-15.4V15.5    C95.8,6.9,88.9,0,80.3,0H17.7C9.1,0,2.2,6.9,2.2,15.5v25.4c0,8.3,6.6,15.1,14.7,15.4l-1.8,16.8c-2.7-0.4-5.2-1.8-7-4    c-1.5-1.9-4.6-2.2-6.5-0.7c-1,0.8-1.5,1.9-1.7,3.1c-0.1,1.2,0.2,2.4,1,3.4c3.3,4.1,8,6.7,13.2,7.4L7.5,146h5.9l8.7-63.5h0.6v6.5    h0.7L20,120.8h5.8l4.4-31.9h37.6l4.4,31.9H78l-3.4-31.9h0.7v-6.5h0.6l8.7,63.5h5.9l-6.7-63.7c5.1-0.7,9.8-3.2,13.2-7.3    c0.8-0.9,1.2-2.1,1-3.4C97.9,70.4,97.3,69.3,96.3,68.5z M4.2,40.8V15.5C4.2,8,10.2,2,17.7,2h62.7C87.8,2,93.8,8,93.8,15.5v25.4    c0,7.5-6,13.5-13.5,13.5H17.7C10.2,54.4,4.2,48.3,4.2,40.8z M25.7,56.3h46.6l2.3,17H23.4L25.7,56.3z M21.4,73.3h-4.3l1.8-17h4.8    L21.4,73.3z M74.3,56.3h4.8l1.8,17h-4.3L74.3,56.3z M11.7,144h-2l6.5-61.6c0.3,0,0.5,0,0.8,0h3.2L11.7,144z M24.1,118.9h-1.9    l3.2-29.9h2.9L24.1,118.9z M24.7,87v-4.5h48.6V87H24.7z M75.8,118.9h-1.9l-4.1-29.9h2.9L75.8,118.9z M88.3,144h-2l-8.5-61.6h3.3    c0.2,0,0.5,0,0.7,0L88.3,144z M95.4,73.8c-3.5,4.3-8.8,6.8-14.3,6.8H17c-5.6,0-10.9-2.5-14.4-6.9c-0.4-0.6-0.7-1.2-0.6-1.9    c0.1-0.7,0.4-1.3,1-1.8c0.5-0.4,1.1-0.6,1.7-0.6c0.8,0,1.6,0.4,2.1,1c2.5,3.1,6.3,4.9,10.3,4.9h64.2c4,0,7.7-1.8,10.2-4.8    c0.9-1.1,2.6-1.3,3.7-0.4c0.5,0.5,0.9,1.1,0.9,1.8C96.1,72.5,95.9,73.2,95.4,73.8z M13.7,8.7c-1.8,0-3.3,1.5-3.3,3.3    c0,1.8,1.5,3.3,3.3,3.3c1.8,0,3.3-1.5,3.3-3.3C16.9,10.2,15.5,8.7,13.7,8.7z M13.7,13.3c-0.7,0-1.3-0.6-1.3-1.3    c0-0.7,0.6-1.3,1.3-1.3c0.7,0,1.3,0.6,1.3,1.3C15,12.7,14.4,13.3,13.7,13.3z M13.7,42c-1.8,0-3.3,1.5-3.3,3.3s1.5,3.3,3.3,3.3    c1.8,0,3.3-1.5,3.3-3.3S15.5,42,13.7,42z M13.7,46.6c-0.7,0-1.3-0.6-1.3-1.3c0-0.7,0.6-1.3,1.3-1.3c0.7,0,1.3,0.6,1.3,1.3    C15,46,14.4,46.6,13.7,46.6z M83.5,15.2c1.8,0,3.3-1.5,3.3-3.3c0-1.8-1.5-3.3-3.3-3.3c-1.8,0-3.3,1.5-3.3,3.3    C80.2,13.8,81.7,15.2,83.5,15.2z M83.5,10.6c0.7,0,1.3,0.6,1.3,1.3c0,0.7-0.6,1.3-1.3,1.3c-0.7,0-1.3-0.6-1.3-1.3    C82.2,11.2,82.8,10.6,83.5,10.6z M83.5,48.5c1.8,0,3.3-1.5,3.3-3.3S85.3,42,83.5,42c-1.8,0-3.3,1.5-3.3,3.3S81.7,48.5,83.5,48.5z     M83.5,43.9c0.7,0,1.3,0.6,1.3,1.3c0,0.7-0.6,1.3-1.3,1.3c-0.7,0-1.3-0.6-1.3-1.3C82.2,44.5,82.8,43.9,83.5,43.9z"/>
	</g>
</g>
</svg>
