<?xml version="1.0" encoding="utf-8"?>
<!-- Generator: Adobe Illustrator 18.1.1, SVG Export Plug-In . SVG Version: 6.00 Build 0)  -->
<!DOCTYPE svg PUBLIC "-//W3C//DTD SVG 1.1//EN" "http://www.w3.org/Graphics/SVG/1.1/DTD/svg11.dtd">
<svg xmlns="http://www.w3.org/2000/svg" xmlns:xlink="http://www.w3.org/1999/xlink" version="1.1" id="Layer_1" x="0px" y="0px" width="98px" height="146px" viewBox="0 0 98 146" xml:space="preserve">
<path fill="#B7A18C" d="M89.2,137.6H95L81,81.5c4.8-1.6,8.3-3.7,10-6.2c1.2-1.8,1.5-3.8,0.8-5.7C90,65.2,75.5,20.2,75.4,19.7  c-0.2-0.7-0.4-1.4-0.6-2C72.9,10.8,71,3.7,60.2,1.9c-1.7-0.3-7.4-0.4-11.7-0.4c-3,0-6.6,0-7.8,0.2c-12,1.4-14,8.8-16,16  c-0.2,0.7-0.4,1.4-0.6,2C24,20.2,9.5,65.2,7.7,69.7c-0.7,1.9-0.5,3.9,0.8,5.7c1.7,2.5,5.2,4.6,10,6.2l-14,56.1h5.8l16.6-53.9  c2.3,0.4,4.7,0.7,7.3,1l-6.9,27.6h5.8l8.3-27.1c1.3,0,2.7,0.1,4.1,0.1c1.4,0,2.7,0,4.1-0.1c1.4,0,2.8,0.1,4.2,0.1c0,0,0,0,0,0  c1.4,0,2.8,0,4.1-0.1l8.3,27.1h5.8l-6.9-27.6c2.6-0.2,5-0.6,7.3-1L89.2,137.6z M92.5,135.6h-1.9L74.5,83.3c1.7-0.3,3.2-0.7,4.7-1.2  L92.5,135.6z M26,20.3c0.2-0.7,0.4-1.4,0.6-2.1c2-7.2,3.6-13.3,14.3-14.5c0.9-0.1,3.9-0.2,7.6-0.2c5.5,0,10.2,0.1,11.4,0.3  c9.6,1.5,11.2,7.5,13.1,14.4c0.2,0.7,0.4,1.4,0.6,2.1C74.1,22,85.4,57,89,67.7c-9.1-1.5-23.5-2.3-39.2-2.3  c-15.7,0-30.2,0.9-39.2,2.3C14.2,57,25.5,22,26,20.3z M8.9,135.6H7l13.3-53.5c1.5,0.4,3,0.8,4.7,1.2L8.9,135.6z M31.8,110.2h-1.9  l6.3-25.4c1.1,0.1,2.2,0.2,3.3,0.2L31.8,110.2z M53.9,83.2c-1.3,0-2.7,0-4.2-0.1c-1.4,0-2.8,0.1-4.1,0.1c-20.3,0-32.5-4.5-35.5-9  c-0.9-1.3-1.1-2.5-0.5-3.9c0.1-0.2,0.1-0.4,0.2-0.6c8.9-1.6,23.7-2.5,40-2.5c16.2,0,31.1,0.9,40,2.5c0.1,0.2,0.2,0.5,0.2,0.6  c0.5,1.3,0.3,2.6-0.5,3.9C86.3,78.7,74.2,83.2,53.9,83.2z M69.7,110.2h-1.9L60,85c1.1-0.1,2.2-0.1,3.3-0.2L69.7,110.2z"/>
</svg>
