<?xml version="1.0" encoding="utf-8"?>
<!-- Generator: Adobe Illustrator 18.1.1, SVG Export Plug-In . SVG Version: 6.00 Build 0)  -->
<!DOCTYPE svg PUBLIC "-//W3C//DTD SVG 1.1//EN" "http://www.w3.org/Graphics/SVG/1.1/DTD/svg11.dtd">
<svg xmlns="http://www.w3.org/2000/svg" xmlns:xlink="http://www.w3.org/1999/xlink" version="1.1" id="Layer_1" x="0px" y="0px" width="137.6px" height="146px" viewBox="0 0 137.6 146" xml:space="preserve">
<path fill="#B7A18C" d="M132.2,42.9c-0.4-2.1-3-3.5-7-5.6c-5.1-2.8-12.2-6.6-18-13.9c-3.6-3.6-6.3-6.8-8.7-9.6  C90.8,4.6,87,0.1,68.7,0.1c-18.2,0-22.3,4.8-29.7,13.7c-2.4,2.8-5.1,6-8.7,9.7c-5.8,7.3-12.8,11.1-17.9,13.9c-3.9,2.1-6.6,3.6-7,5.6  c-0.2,0.9,0.1,1.9,0.9,2.9L6.3,46l0.7,0.3c5.2,1.8,9,3.1,11.1,11.8l0.2,0.9c1.6,6.7,4.4,18.3,18.9,25.3l-13.8,55.5h5.8l16.1-52.5  c2.2,0.6,4.6,1.2,7.2,1.6l-6.4,25.5h5.8l7.6-24.6c1.8,0.2,3.7,0.3,5.7,0.3l0,0c0.6,0.1,1.6,0.1,3.3,0.1c1.7,0,2.7,0,3.3-0.1l0,0  c2-0.1,3.9-0.2,5.7-0.3l7.6,24.6h5.8l-6.4-25.5c2.6-0.4,5-1,7.2-1.6l16.1,52.5h5.8l-13.8-55.5c14.6-7,17.3-18.6,18.9-25.3l0.2-0.9  c2.1-8.7,5.9-10,11.1-11.8l0.7-0.3l0.2-0.2C132.1,44.8,132.4,43.9,132.2,42.9z M27.9,137.8H26l13.1-52.7c1.4,0.6,2.9,1.1,4.5,1.7  L27.9,137.8z M50.8,112.4h-1.9l5.8-23.2c1,0.1,2.1,0.3,3.1,0.4L50.8,112.4z M88.7,112.4h-1.9l-7-22.8c1.1-0.1,2.1-0.2,3.1-0.4  L88.7,112.4z M111.5,137.8h-1.9L93.9,86.8c1.6-0.5,3.1-1.1,4.5-1.7L111.5,137.8z M72,88.2L72,88.2c-0.8,0-5.7,0-6.4,0l-0.1,0  C40.6,87.4,29.9,79,24.9,70.7c11,8.2,27,13.1,43.9,13.1c17,0,32.1-4.6,44-13.2C107.8,78.9,97.1,87.4,72,88.2z M130,44.4l-0.2,0.1  c-5.4,1.9-10,3.5-12.4,13.2l-0.2,0.9c-0.5,2.2-1.2,5-2.5,8c-12,10-27.9,15.3-46,15.3c-18.2,0-35.3-5.7-45.8-15.2l-0.1,0.1  c-1.3-3.1-2-6-2.6-8.2l-0.2-0.9c-2.4-9.8-7-11.4-12.4-13.2l-0.2-0.1c-0.4-0.6-0.4-0.9-0.3-1c0.2-1.2,2.9-2.6,6-4.3  c5.3-2.9,12.5-6.8,18.5-14.3c3.7-3.7,6.4-6.9,8.8-9.7C47.9,6.1,51.4,2,68.7,2c17.4,0,20.8,4.1,28.4,13c2.4,2.8,5.1,6,8.7,9.6  c6,7.6,13.2,11.5,18.5,14.4c3.1,1.7,5.8,3.1,6,4.3C130.4,43.4,130.4,43.8,130,44.4z"/>
</svg>
